<svg role="img" viewBox="0 0 24 24" xmlns="http://www.w3.org/2000/svg" fill="#217346"><title>Microsoft Excel</title><path d="M23 1.5q.41 0 .7.3.3.29.3.7v19q0 .41-.3.7-.29.3-.7.3H7q-.41 0-.7-.3-.3-.29-.3-.7V18H1q-.41 0-.7-.3-.3-.29-.3-.7V7q0-.41.3-.7Q.58 6 1 6h5V2.5q0-.41.3-.7.29-.3.7-.3zM6 13.28l-2.05 2.5q-.16.19-.41.19-.15 0-.25-.11-.11-.1-.11-.25 0-.11.06-.2L5.5 12.8 3.2 9.87q-.05-.08-.05-.17 0-.14.11-.24.1-.11.25-.11.14 0 .23.11L6 12.02l2.3-2.61q.13-.16.3-.16.16 0 .25.1.1.1.1.25 0 .08-.05.15L6.5 12.42l2.39 3.1q.06.08.06.18 0 .14-.11.25-.1-.1-.26-.1-.13 0-.25-.13zM21 20V4H8v16h13zm-3.5-3.5v-2H11v2h6.5zm0-4.5v-2H11v2h6.5zm0-4.5v-2H11v2h6.5z"/></svg>